<svg width="25" height="25" viewBox="0 0 25 25" fill="none" xmlns="http://www.w3.org/2000/svg">
<path d="M12.9166 12.5H12.5C12.5 6.45833 10.0833 6.45833 7.49998 6.45833C4.83331 6.45833 2.08331 6.45833 2.08331 0H2.49998C2.49998 6.04167 4.91665 6.04167 7.49998 6.04167C10.1666 6.04167 12.9166 6.04167 12.9166 12.5Z" fill="#F4F4F4"/>
<path d="M25 23.75C25 24.4583 24.4583 25 23.8333 25H1.16667C0.541667 25 0 24.4583 0 23.75V13.75C0 13.0417 0.541667 12.5 1.16667 12.5H23.8333C24.5 12.5 25 13.0417 25 13.75V23.75V23.75Z" fill="#929292"/>
<path d="M2.49998 16.25C2.49998 16.4583 2.33331 16.6667 2.08331 16.6667H1.24998C0.99998 16.6667 0.833313 16.5 0.833313 16.25V15.4167C0.833313 15.1667 0.99998 15 1.24998 15H2.08331C2.33331 15 2.49998 15.1667 2.49998 15.4167V16.25ZM4.99998 16.25C4.99998 16.4583 4.83331 16.6667 4.58331 16.6667H3.74998C3.49998 16.6667 3.33331 16.5 3.33331 16.25V15.4167C3.33331 15.1667 3.49998 15 3.74998 15H4.58331C4.83331 15 4.99998 15.1667 4.99998 15.4167V16.25ZM7.49998 16.25C7.49998 16.4583 7.33331 16.6667 7.08331 16.6667H6.24998C5.99998 16.6667 5.83331 16.5 5.83331 16.25V15.4167C5.83331 15.1667 5.99998 15 6.24998 15H7.08331C7.33331 15 7.49998 15.1667 7.49998 15.4167V16.25ZM9.99998 16.25C9.99998 16.4583 9.83331 16.6667 9.58331 16.6667H8.74998C8.49998 16.6667 8.33331 16.5 8.33331 16.25V15.4167C8.33331 15.1667 8.49998 15 8.74998 15H9.58331C9.83331 15 9.99998 15.1667 9.99998 15.4167V16.25ZM12.5 16.25C12.5 16.4583 12.3333 16.6667 12.0833 16.6667H11.25C11 16.6667 10.8333 16.5 10.8333 16.25V15.4167C10.8333 15.1667 11 15 11.25 15H12.0833C12.3333 15 12.5 15.1667 12.5 15.4167V16.25ZM15 16.25C15 16.4583 14.8333 16.6667 14.5833 16.6667H13.75C13.5416 16.6667 13.3333 16.5 13.3333 16.25V15.4167C13.3333 15.1667 13.5 15 13.75 15H14.5833C14.8333 15 15 15.1667 15 15.4167V16.25ZM17.5 16.25C17.5 16.4583 17.3333 16.6667 17.0833 16.6667H16.25C16 16.6667 15.8333 16.5 15.8333 16.25V15.4167C15.8333 15.1667 16 15 16.25 15H17.0833C17.3333 15 17.5 15.1667 17.5 15.4167V16.25ZM20 16.25C20 16.4583 19.8333 16.6667 19.5833 16.6667H18.75C18.5416 16.6667 18.3333 16.5 18.3333 16.25V15.4167C18.3333 15.1667 18.5 15 18.75 15H19.5833C19.7916 15 20 15.1667 20 15.4167V16.25ZM20.8333 18.75C20.8333 19 20.6666 19.1667 20.4166 19.1667H19.5833C19.3333 19.1667 19.1666 19 19.1666 18.75V17.9167C19.1666 17.7083 19.3333 17.5 19.5833 17.5H20.4166C20.625 17.5 20.8333 17.6667 20.8333 17.9167V18.75ZM18.3333 18.75C18.3333 19 18.1666 19.1667 17.9166 19.1667H17.0833C16.875 19.1667 16.6666 19 16.6666 18.75V17.9167C16.6666 17.7083 16.8333 17.5 17.0833 17.5H17.9166C18.1666 17.5 18.3333 17.6667 18.3333 17.9167V18.75ZM15.8333 18.75C15.8333 19 15.6666 19.1667 15.4166 19.1667H14.5833C14.3333 19.1667 14.1666 19 14.1666 18.75V17.9167C14.1666 17.7083 14.3333 17.5 14.5833 17.5H15.4166C15.625 17.5 15.8333 17.6667 15.8333 17.9167V18.75ZM13.3333 18.75C13.3333 19 13.1666 19.1667 12.9166 19.1667H12.0833C11.8333 19.1667 11.6666 19 11.6666 18.75V17.9167C11.6666 17.7083 11.8333 17.5 12.0833 17.5H12.9166C13.1666 17.5 13.3333 17.6667 13.3333 17.9167V18.75ZM10.8333 18.75C10.8333 19 10.6666 19.1667 10.4166 19.1667H9.58331C9.37498 19.1667 9.16665 19 9.16665 18.75V17.9167C9.16665 17.7083 9.33331 17.5 9.58331 17.5H10.4166C10.6666 17.5 10.8333 17.6667 10.8333 17.9167V18.75ZM8.33331 18.75C8.33331 19 8.16665 19.1667 7.91665 19.1667H7.08331C6.83331 19.1667 6.66665 19 6.66665 18.75V17.9167C6.66665 17.7083 6.83331 17.5 7.08331 17.5H7.91665C8.16665 17.5 8.33331 17.6667 8.33331 17.9167V18.75ZM5.83331 18.75C5.83331 19 5.66665 19.1667 5.41665 19.1667H4.58331C4.33331 19.1667 4.16665 19 4.16665 18.75V17.9167C4.16665 17.7083 4.33331 17.5 4.58331 17.5H5.41665C5.66665 17.5 5.83331 17.6667 5.83331 17.9167V18.75ZM6.66665 21.25C6.66665 21.4583 6.49998 21.6667 6.24998 21.6667H5.41665C5.20831 21.6667 4.99998 21.5 4.99998 21.25V20.4167C4.99998 20.1667 5.16665 20 5.41665 20H6.24998C6.49998 20 6.66665 20.1667 6.66665 20.4167V21.25ZM5.83331 23.75C5.83331 23.9583 5.66665 24.1667 5.41665 24.1667H4.58331C4.33331 24.1667 4.16665 24 4.16665 23.75V22.9167C4.16665 22.6667 4.33331 22.5 4.58331 22.5H5.41665C5.66665 22.5 5.83331 22.6667 5.83331 22.9167V23.75ZM8.33331 23.75C8.33331 23.9583 8.16665 24.1667 7.91665 24.1667H7.08331C6.83331 24.1667 6.66665 24 6.66665 23.75V22.9167C6.66665 22.6667 6.83331 22.5 7.08331 22.5H7.91665C8.16665 22.5 8.33331 22.6667 8.33331 22.9167V23.75ZM9.16665 21.25C9.16665 21.4583 8.99998 21.6667 8.74998 21.6667H7.91665C7.66665 21.6667 7.49998 21.5 7.49998 21.25V20.4167C7.49998 20.1667 7.66665 20 7.91665 20H8.74998C8.99998 20 9.16665 20.1667 9.16665 20.4167V21.25ZM11.6666 21.25C11.6666 21.4583 11.5 21.6667 11.25 21.6667H10.4166C10.1666 21.6667 9.99998 21.5 9.99998 21.25V20.4167C9.99998 20.1667 10.1666 20 10.4166 20H11.25C11.4583 20 11.6666 20.1667 11.6666 20.4167V21.25ZM14.1666 21.25C14.1666 21.4583 14 21.6667 13.75 21.6667H12.9166C12.6666 21.6667 12.5 21.5 12.5 21.25V20.4167C12.5 20.1667 12.6666 20 12.9166 20H13.75C14 20 14.1666 20.1667 14.1666 20.4167V21.25ZM16.6666 21.25C16.6666 21.4583 16.5 21.6667 16.25 21.6667H15.4166C15.1666 21.6667 15 21.5 15 21.25V20.4167C15 20.1667 15.1666 20 15.4166 20H16.25C16.5 20 16.6666 20.1667 16.6666 20.4167V21.25ZM19.1666 21.25C19.1666 21.4583 19 21.6667 18.75 21.6667H17.9166C17.7083 21.6667 17.5 21.5 17.5 21.25V20.4167C17.5 20.1667 17.6666 20 17.9166 20H18.75C18.9583 20 19.1666 20.1667 19.1666 20.4167V21.25ZM20 23.75C20 23.9583 19.8333 24.1667 19.5833 24.1667H18.75C18.5416 24.1667 18.3333 24 18.3333 23.75V22.9167C18.3333 22.6667 18.5 22.5 18.75 22.5H19.5833C19.7916 22.5 20 22.6667 20 22.9167V23.75ZM24.1666 16.25C24.1666 16.4583 24 16.6667 23.7916 16.6667H21.2083C21 16.6667 20.8333 16.5 20.8333 16.25V15.4167C20.8333 15.1667 21 15 21.2083 15H23.7916C24 15 24.1666 15.1667 24.1666 15.4167V16.25ZM24.1666 23.75C24.1666 23.9583 24 24.1667 23.7916 24.1667H21.2083C21 24.1667 20.8333 24 20.8333 23.75V22.9167C20.8333 22.6667 21 22.5 21.2083 22.5H23.7916C24 22.5 24.1666 22.6667 24.1666 22.9167V23.75ZM24.1666 21.25C24.1666 21.4583 24 21.6667 23.8333 21.6667H20.3333C20.1666 21.6667 20 21.5 20 21.25V20.4167C20 20.1667 20.1666 20 20.3333 20H23.8333C24.0416 20 24.1666 20.1667 24.1666 20.4167V21.25ZM4.16665 21.25C4.16665 21.4583 3.99998 21.6667 3.79165 21.6667H1.20831C0.99998 21.6667 0.833313 21.5 0.833313 21.25V20.4167C0.833313 20.1667 0.99998 20 1.20831 20H3.79165C3.99998 20 4.16665 20.1667 4.16665 20.4167V21.25V21.25ZM24.1666 18.75C24.1666 19 24 19.1667 23.7916 19.1667H22.0416C21.8333 19.1667 21.6666 19 21.6666 18.75V17.9167C21.6666 17.7083 21.8333 17.5 22.0416 17.5H23.7916C24 17.5 24.1666 17.6667 24.1666 17.9167V18.75ZM3.33331 18.75C3.33331 19 3.16665 19.1667 2.95831 19.1667H1.20831C0.99998 19.1667 0.833313 19 0.833313 18.75V17.9167C0.833313 17.7083 0.99998 17.5 1.20831 17.5H2.95831C3.16665 17.5 3.33331 17.6667 3.33331 17.9167V18.75V18.75ZM3.33331 23.75C3.33331 23.9583 3.16665 24.1667 2.95831 24.1667H1.20831C0.99998 24.1667 0.833313 23.9583 0.833313 23.75V22.9167C0.833313 22.7083 0.99998 22.5 1.20831 22.5H2.95831C3.16665 22.5 3.33331 22.6667 3.33331 22.9167V23.75ZM17.5 23.75C17.5 23.9583 17.3333 24.1667 17.1666 24.1667H9.49998C9.29165 24.1667 9.16665 24 9.16665 23.75V22.9167C9.16665 22.7083 9.33331 22.5 9.49998 22.5H17.125C17.3333 22.5 17.4583 22.6667 17.4583 22.9167V23.75H17.5Z" fill="#F4F4F4"/>
<path d="M2.875 14.1667H2.125C1.54167 14.1667 1.54167 13.3333 2.125 13.3333H2.875C3.5 13.3333 3.5 14.1667 2.875 14.1667ZM5.375 14.1667H4.58333C4 14.1667 4 13.3333 4.58333 13.3333H5.375C6 13.3333 6 14.1667 5.375 14.1667ZM7.875 14.1667H7.08333C6.5 14.1667 6.5 13.3333 7.08333 13.3333H7.875C8.5 13.3333 8.5 14.1667 7.875 14.1667ZM10.375 14.1667H9.625C9.04167 14.1667 9.04167 13.3333 9.625 13.3333H10.375C11 13.3333 11 14.1667 10.375 14.1667ZM12.875 14.1667H12.125C11.5417 14.1667 11.5417 13.3333 12.125 13.3333H12.875C13.5 13.3333 13.5 14.1667 12.875 14.1667ZM15.375 14.1667H14.625C14.0417 14.1667 14.0417 13.3333 14.625 13.3333H15.375C16 13.3333 16 14.1667 15.375 14.1667ZM17.875 14.1667H17.125C16.5417 14.1667 16.5417 13.3333 17.125 13.3333H17.875C18.5 13.3333 18.5 14.1667 17.875 14.1667ZM20.375 14.1667H19.625C19.0417 14.1667 19.0417 13.3333 19.625 13.3333H20.375C21 13.3333 21 14.1667 20.375 14.1667ZM22.875 14.1667H22.125C21.5417 14.1667 21.5417 13.3333 22.125 13.3333H22.875C23.5 13.3333 23.5 14.1667 22.875 14.1667Z" fill="#F4F4F4"/>
</svg>
